<svg width="100" height="100" viewBox="0 0 105 80" fill="none" xmlns="http://www.w3.org/2000/svg">
<path d="M39.8037 77.1671C39.8037 77.1671 40.2546 64.7666 39.8037 60.3701C39.3528 55.9736 38 52.5916 38 50.4497C38 48.3078 38 45.8277 38 41.7694C38 37.711 39.9724 31.7363 40.0039 30.0453C39.9552 29.3202 39.8037 27.6779 40.0039 26.8888C40.2826 25.793 41.7201 24.6342 41.7201 22.9432C41.7201 21.2522 41.1565 17.8703 43.4111 15.9538C45.6658 14.0374 46.0039 14.2628 46.5676 12.4591C47.1313 10.6554 48.935 10.43 49.8368 9.97904C50.7387 9.52812 53.4442 7.61168 54.9097 6.2589C56.3753 4.90612 58.9681 3.66607 61.6736 3.10241C64.3792 2.53876 65.6193 1.74963 67.0848 1.52417C68.5503 1.29871 73.285 -0.279536 73.285 3.44061C73.285 7.16075 70.4667 7.83714 68.0993 8.739C65.732 9.64085 62.6882 10.9936 61.7864 11.5573C60.8845 12.1209 60.0954 13.9247 57.3898 14.7138" stroke="#000000" stroke-miterlimit="10" stroke-linecap="round" stroke-linejoin="round"/>
<path d="M50.2876 21.9285C50.2876 21.9285 51.6765 23.0828 52.204 23.2812C53.0292 23.5906 53.6695 23.7322 56.1496 23.9576C58.6297 24.1831 63.9281 24.634 64.3791 27.1141C64.83 29.5942 64.4918 31.0597 63.2517 32.9762C62.0117 34.8926 60.9971 34.6671 60.9971 34.6671" stroke="#000000" stroke-miterlimit="10" stroke-linecap="round" stroke-linejoin="round"/>
<path d="M59.042 13.9949V15.6904" stroke="#000000" stroke-miterlimit="10" stroke-linecap="round" stroke-linejoin="round"/>
<path d="M68.0562 20.2216C68.0562 20.2216 68.8877 19.4487 71.0296 18.4341C73.1715 17.4195 76.9782 16.6683 77.6546 19.4866C78.331 22.3048 77.1171 23.3943 73.9606 25.7617C70.8041 28.129 69.8779 27.624 68.8877 27.3399" stroke="#000000" stroke-miterlimit="10" stroke-linecap="round" stroke-linejoin="round"/>
<path d="M69.8775 27.6238C69.8775 27.6238 67.9854 30.4962 66.8581 31.7362C65.7308 32.9763 62.7231 39.8529 59.0417 41.2057C59.0417 41.2057 58.1435 41.6566 57.4283 42.7839C56.7131 43.9112 54.9094 46.0531 54.3458 47.0677C53.7821 48.0823 54.0076 52.7043 54.3458 56.7627C54.684 60.821 55.1277 65.5963 56.1495 69.0504C57.7512 74.4651 58.5529 77.5053 59.0426 81" stroke="#000000" stroke-miterlimit="10" stroke-linecap="round" stroke-linejoin="round"/>
<path d="M46.2295 29.5945C46.2295 29.5945 49.4987 31.2855 52.4297 31.9618C55.3608 32.6382 62.6883 32.6382 60.6591 37.8239C58.63 43.0095 50.0624 39.6673 48.4841 39.0838" stroke="#000000" stroke-miterlimit="10" stroke-linecap="round" stroke-linejoin="round"/>
<path d="M51.7669 40.1362C51.7669 40.1362 50.9642 45.0387 46.2295 46.3915" stroke="#000000" stroke-miterlimit="10" stroke-linecap="round" stroke-linejoin="round"/>
<path d="M50.2876 13.3608C50.2876 13.3608 52.204 14.9391 55.6419 15.5027C59.0807 16.0664 62.9135 16.1791 65.3936 16.8555C65.3936 16.8555 68.6629 17.3443 67.761 23.2064C66.8592 29.0684 65.2331 29.5193 64.5432 29.5942" stroke="#000000" stroke-miterlimit="10" stroke-linecap="round" stroke-linejoin="round"/>
</svg>
