<svg width="100" height="100" viewBox="0 0 115 80" fill="none" xmlns="http://www.w3.org/2000/svg">
<path d="M50.5117 78.741C50.5117 78.741 49.6078 70.1532 48.8547 65.7843C48.8547 65.7843 48.1768 61.4904 47.8757 60.4355C47.5747 59.3805 47.8007 57.7236 47.8757 56.2926C47.9508 54.8616 47.0468 54.1836 47.1227 50.4918C47.1987 46.7999 45.5408 47.0268 45.1638 41.678C44.7869 36.3292 44.1848 33.6172 44.0338 31.2072C43.8829 28.7963 44.2598 27.5163 44.7118 25.2564C45.1638 22.9964 45.6158 20.8875 45.6158 19.7575C45.6158 19.7575 45.6158 18.0246 45.4648 16.5936C45.3139 15.1626 46.4854 13.5047 47.2556 11.4707C48.0258 9.4368 48.5528 7.32783 49.3067 5.8209C50.0597 4.31397 50.1357 1 51.7176 1C53.2996 1 54.8815 1.97901 53.1486 8.4578C53.1486 8.4578 52.5457 10.1148 52.3197 10.3408C52.0937 10.5668 51.6417 14.9357 51.4907 16.5176C51.3398 18.0996 51.4157 21.7155 51.7918 22.3935" stroke="#000000" stroke-miterlimit="10" stroke-linecap="round" stroke-linejoin="round"/>
<path d="M67.6879 16.1405C67.6879 16.1405 68.215 14.7845 70.1739 14.7845C70.1739 14.7845 72.6598 14.6336 72.6598 19.0784C72.6598 23.5233 72.8108 24.5023 72.6598 26.6113C72.5089 28.7202 72.5848 31.4322 73.1118 33.0901C73.6388 34.7479 72.1328 38.2129 71.7558 39.8699C71.3789 41.5269 71.0779 45.5197 67.6879 48.5327C64.298 51.5456 64.8251 55.0115 64.8251 58.0244C64.8251 61.0374 66.0301 68.1191 66.784 70.7551C67.537 73.392 69.8729 80.9999 69.8729 80.9999" stroke="#000000" stroke-miterlimit="10" stroke-linecap="round" stroke-linejoin="round"/>
<path d="M65.6451 16.8539C65.6451 16.8539 68.0642 14.9357 69.4201 18.3256C70.7761 21.7155 70.3241 22.9964 70.3241 24.5784C70.3241 26.1603 70.0981 30.0772 69.5711 31.1322C69.0441 32.1871 68.9682 35.4261 66.3322 36.029H64.7954" stroke="#000000" stroke-miterlimit="10" stroke-linecap="round" stroke-linejoin="round"/>
<path d="M51.4829 20.5161C51.4829 20.5161 52.4701 20.0587 54.278 19.4557C56.086 18.8528 60.0788 17.2708 61.3588 16.8188C62.6389 16.3669 65.6527 15.6943 66.4057 18.6675C67.1588 21.6406 66.9328 23.1467 67.0837 25.3316C67.2347 27.5165 67.4607 30.0774 66.4808 32.2624C65.5018 34.4473 64.7478 35.7273 64.3718 37.3093C63.9948 38.8912 62.0368 38.6652 62.0368 38.6652" stroke="#000000" stroke-miterlimit="10" stroke-linecap="round" stroke-linejoin="round"/>
<path d="M51.6758 22.0499C51.6758 22.0499 55.0883 20.2464 57.8572 20.6984C60.6251 21.1504 62.603 20.5285 63.1111 22.5064C63.62 24.4843 63.9021 28.1002 64.411 29.5122C64.919 30.9242 65.089 32.6761 64.128 34.3141C63.168 35.9521 61.7551 39.06 61.7551 39.06C61.7551 39.06 61.0771 40.3029 60.0602 40.19C59.0432 40.077 57.2352 39.06 58.5912 34.8221C58.5912 34.8221 59.3261 32.6752 59.8342 32.9012" stroke="#000000" stroke-miterlimit="10" stroke-linecap="round" stroke-linejoin="round"/>
<path d="M52.5459 23.5234C52.5459 23.5234 55.9919 28.2693 56.8398 28.3823C57.6868 28.4953 57.6868 28.4953 57.6868 28.4953" stroke="#000000" stroke-miterlimit="10" stroke-linecap="round" stroke-linejoin="round"/>
<path d="M57.9703 26.0093C57.9703 26.0093 57.8004 31.2505 59.5523 32.9798" stroke="#000000" stroke-miterlimit="10" stroke-linecap="round" stroke-linejoin="round"/>
<path d="M58.1922 29.4949C58.1922 29.4949 57.0658 30.746 54.2979 30.4115" stroke="#000000" stroke-miterlimit="10" stroke-linecap="round" stroke-linejoin="round"/>
</svg>
