<svg width="100" height="100" viewBox="0 -5 107 80" fill="none" xmlns="http://www.w3.org/2000/svg">
<path d="M53.2056 21.7664C53.2056 21.7664 58.4315 26.9148 59.5842 27.2994C60.7369 27.6839 62.5813 27.6065 63.6574 26.4538C64.7336 25.301 66.0394 23.9178 64.8867 22.458C63.734 20.9982 60.5064 18.2317 60.5064 18.2317C60.5064 18.2317 58.816 16.6944 57.8164 15.9263" stroke="#000000" stroke-miterlimit="10" stroke-linecap="round" stroke-linejoin="round"/>
<path d="M49.0557 22.0735C49.0557 22.0735 51.255 24.5311 54.881 23.3793" stroke="#000000" stroke-miterlimit="10" stroke-linecap="round" stroke-linejoin="round"/>
<path d="M68.8056 25.7621C68.8056 25.7621 70.3429 28.5489 72.8789 27.0015C75.4148 25.4541 77.1052 23.6863 77.1052 23.6863L78.873 22.0735L81.3324 20.0751C81.3324 20.0751 82.6391 18.9713 81.6395 17.0015C80.5292 14.8114 73.5705 8.93255 71.4956 7.08821C71.4956 7.08821 69.2667 5.01333 66.9613 2.70791C64.6559 0.402487 62.3505 2.55391 61.2743 3.24553C60.1981 3.93716 58.2772 6.08858 56.2789 7.3953C54.2806 8.70201 54.1127 9.39364 51.9678 11.084C49.8237 12.7743 42.7534 17.7466 41.9078 21.7157C41.4513 23.8597 41.3702 23.9943 41.0622 25.6847C40.7551 27.375 41.6773 28.2206 41.8303 29.9884C41.9834 31.7562 42.9065 60.8046 42.676 62.1878C42.4454 63.5711 42.3689 75.7133 42.522 80.1701" stroke="#000000" stroke-miterlimit="10" stroke-linecap="round" stroke-linejoin="round"/>
<path d="M47.2881 30.0657C47.2881 30.0657 49.9006 31.603 53.9738 30.6033C58.047 29.6046 57.3554 29.6812 58.6612 29.5272C59.967 29.3732 61.4277 29.873 63.0415 29.873C64.6553 29.873 68.8051 28.9951 70.8799 28.8936C72.9548 28.7922 76.259 29.434 78.7184 30.9409C78.7184 30.9409 81.1391 32.7548 84.3667 33.735C87.5943 34.7144 88.4454 34.1223 88.4454 34.1223" stroke="#000000" stroke-miterlimit="10" stroke-linecap="round" stroke-linejoin="round"/>
<path d="M78.8726 22.4351C80.6247 23.929 79.649 23.2539 82.2385 24.4334" stroke="#000000" stroke-miterlimit="10" stroke-linecap="round" stroke-linejoin="round"/>
<path d="M58.0004 29.6121C58.0004 29.6121 57.1253 36.2895 58.4311 43.3598C59.7369 50.43 60.506 53.9647 61.6587 58.8061C62.8114 63.6475 63.1185 63.1099 64.8097 68.3349C66.5001 73.5608 68.883 80.9999 68.883 80.9999" stroke="#000000" stroke-miterlimit="10" stroke-linecap="round" stroke-linejoin="round"/>
<path d="M66.9609 2.70786C66.9609 2.70786 70.9567 -1.13482 73.9537 2.70786C74.5965 3.53228 78.1035 7.08816 78.1035 7.08816C78.1035 7.08816 83.7131 12.2366 85.0198 14.0044C86.3265 15.7722 86.9407 19.1529 88.8625 23.0721C90.7833 26.9913 94.78 33.062 91.475 34.2921C87.4875 35.7759 85.5574 30.68 84.3282 28.2981C83.0989 25.9161 82.2533 23.9177 81.5616 22.8803C80.87 21.8429 80.0705 21.0996 80.0705 21.0996" stroke="#000000" stroke-miterlimit="10" stroke-linecap="round" stroke-linejoin="round"/>
<path d="M66.4997 12.1599C66.4997 12.1599 67.3454 13.0055 68.8817 14.1583C70.4189 15.311 73.7996 18.0009 73.9536 19.3842C74.1076 20.7674 74.9523 22.1507 69.6499 24.9937C69.6499 24.9937 66.5274 26.9248 64.707 25.2298" stroke="#000000" stroke-miterlimit="10" stroke-linecap="round" stroke-linejoin="round"/>
</svg>
