<svg width="100" height="100" viewBox="0 0 115 80" fill="none" xmlns="http://www.w3.org/2000/svg">
<path d="M73.6482 13.9471C73.6482 13.9471 72.0766 16.6412 69.6071 15.3687C67.1375 14.0962 64.967 12.0756 64.3689 10.5795C63.7699 9.08252 64.1444 6.9129 66.614 7.81092C69.0835 8.70894 72.4511 8.78348 73.6482 8.78348C73.8601 8.78348 74.0882 8.8185 74.3208 8.89483C75.4047 9.25045 76.5937 10.5014 76.7167 13.2736C76.8667 16.6412 78.1383 20.0833 78.1383 20.0833C78.1383 20.0833 78.9618 23.3009 76.7167 25.1724C74.4717 27.0439 72.6756 30.8596 70.2806 33.5536C67.8856 36.2477 68.1101 36.6222 67.961 39.2408C67.811 41.8604 67.2129 48.7446 67.2129 51.7386C67.2129 54.7326 67.6619 61.3178 67.7365 64.3109C67.811 67.304 68.26 70.2981 68.6345 74.0392C69.009 77.7813 69.8316 79.7264 70.0561 80.9989" stroke="#000000" stroke-miterlimit="10" stroke-linecap="round" stroke-linejoin="round"/>
<path d="M47.5529 81C47.5529 81 48.5784 71.0472 48.6538 67.6042C48.7284 64.1621 49.3273 53.0113 49.4773 50.2427C49.6273 47.4741 49.7764 42.086 50.0009 40.439C50.2254 38.793 49.8509 37.4172 49.3273 36.6081C48.8038 35.7989 46.3342 29.2883 46.1843 24.4991C46.1843 24.4991 46.2588 21.8796 46.1843 21.1315C46.1097 20.3835 45.8098 18.4375 46.1843 17.165C46.5587 15.8925 46.2274 14.1719 47.5529 12.9739C48.8783 11.7768 50.5244 10.8034 52.3205 10.1299C54.1165 9.45633 54.79 11.3269 55.239 12.3749C55.688 13.4229 57.3341 17.1641 57.3341 17.1641C57.3341 17.1641 58.3067 19.6336 56.3616 20.6816C54.4155 21.7296 53.443 20.9807 52.3205 18.7356C51.1979 16.4905 50.5244 16.6405 49.7764 14.9935" stroke="#000000" stroke-miterlimit="10" stroke-linecap="round" stroke-linejoin="round"/>
<path d="M52.3204 18.7373C52.3204 18.7373 50.7489 19.0363 48.6538 18.7373" stroke="#000000" stroke-miterlimit="10" stroke-linecap="round" stroke-linejoin="round"/>
<path d="M53.6671 9.98779C53.6671 9.98779 53.5926 6.38851 55.0887 5.34142C56.5848 4.29432 59.9533 4.14435 60.3269 6.31398C60.7013 8.4845 61.6739 14.3216 61.6739 14.3216C61.6739 14.3216 62.6464 18.7372 60.5514 19.3353C58.4563 19.9343 57.6265 17.8509 56.4321 15.1128" stroke="#000000" stroke-miterlimit="10" stroke-linecap="round" stroke-linejoin="round"/>
<path d="M67.6613 7.59997C67.6613 7.59997 68.1103 2.64737 64.9672 2.04839C61.8242 1.44941 59.8072 3.77169 60.2167 5.92156" stroke="#000000" stroke-miterlimit="10" stroke-linecap="round" stroke-linejoin="round"/>
<path d="M67.1592 3.97832C67.1592 3.97832 68.0348 0.925942 70.0553 1.00138C72.0759 1.07681 74.2464 2.86477 74.5454 4.77666C74.8445 6.68856 74.32 8.895 74.32 8.895" stroke="#000000" stroke-miterlimit="10" stroke-linecap="round" stroke-linejoin="round"/>
<path d="M67.6835 14.1897C67.6835 14.1897 68.7835 17.2394 65.3414 18.2128C61.8993 19.1854 61.8086 15.1371 61.8086 15.1371" stroke="#000000" stroke-miterlimit="10" stroke-linecap="round" stroke-linejoin="round"/>
<path d="M70.2717 15.6255C70.2717 15.6255 70.4881 16.9052 70.2717 18.3636C70.0553 19.8219 70.9533 20.2144 72.5248 20.6634" stroke="#000000" stroke-miterlimit="10" stroke-linecap="round" stroke-linejoin="round"/>
</svg>
