<svg width="100" height="100" viewBox="0 0 120 80" fill="none" xmlns="http://www.w3.org/2000/svg">
<path d="M43 80.9999C43 80.9999 44.1123 58.9771 44.1123 55.4178C44.1123 51.8586 44.6684 40.0686 44.6684 38.1777C44.6684 36.2868 43.8898 34.2848 43.8338 32.6164C43.8338 32.6164 43.8338 30.8919 44.2235 29.002C44.6132 27.112 45.2806 22.8845 45.9479 21.4937C46.6153 20.1029 47.2275 19.5468 47.6724 18.3794C48.1173 17.2119 49.3969 15.5987 50.898 14.4304C52.3991 13.2621 52.4551 12.0386 53.345 10.8711C54.2348 9.70369 55.1798 9.42518 56.292 8.70177C57.4043 7.97835 58.1268 4.86489 59.6288 4.14148C61.1308 3.41806 63.2432 3.69657 65.135 3.41895C67.0267 3.14133 67.4147 1.24958 69.3064 1.02713C71.1982 0.804678 72.3095 2.02817 74.6453 1.86178C76.9811 1.69538 80.9852 1.80661 82.8209 1.75055C84.6566 1.69449 84.4893 2.52914 87.4372 2.58519C90.3852 2.64125 92.22 3.69746 93.5547 3.69746C94.8894 3.69746 96.7803 4.0872 96.5018 6.19961C96.2233 8.31203 93.4426 9.25879 91.4966 9.25879C89.5505 9.25879 83.878 9.14756 81.7638 9.64853C79.6496 10.1495 75.9249 10.872 74.8678 12.5404" stroke="#000000" stroke-miterlimit="10" stroke-linecap="round" stroke-linejoin="round"/>
<path d="M71.2515 8.31384C71.2515 8.31384 71.8637 9.64856 73.0311 10.816C74.1985 11.9834 78.0923 15.6548 78.6476 17.9345C79.2028 20.2142 78.7588 20.4366 77.5905 21.605C76.4222 22.7733 74.421 25.1091 71.9179 25.4427" stroke="#000000" stroke-miterlimit="10" stroke-linecap="round" stroke-linejoin="round"/>
<path d="M64.0767 12.818C64.0767 12.818 64.4103 13.7078 64.6328 14.5976C64.8552 15.4874 65.6338 16.0996 66.69 17.3222C67.7462 18.5448 70.8054 21.2152 71.7513 23.7734C72.6972 26.3316 70.4166 27.3887 68.4145 28.3897C66.4124 29.3908 64.5776 28.7234 64.5776 28.7234" stroke="#000000" stroke-miterlimit="10" stroke-linecap="round" stroke-linejoin="round"/>
<path d="M55.9016 17.4346C55.9016 17.4346 57.7925 19.6591 59.7385 21.4387C61.6845 23.2184 65.6335 27.501 64.0763 29.3358C62.5192 31.1706 60.3498 32.0604 58.1253 30.7818C55.9007 29.5031 55.1221 27.0552 53.2865 26.9449C51.4508 26.8346 49.3935 25.8878 48.8374 25.4429" stroke="#000000" stroke-miterlimit="10" stroke-linecap="round" stroke-linejoin="round"/>
<path d="M50.5635 23.6631C50.5635 23.6631 51.2442 25.3671 54.0738 27.1565" stroke="#000000" stroke-miterlimit="10" stroke-linecap="round" stroke-linejoin="round"/>
<path d="M78.886 19.3805C78.886 19.3805 83.3191 19.7702 85.1547 21.605C86.9904 23.4398 86.0766 25.7533 85.4324 26.4438C84.6538 27.2785 83.0966 27.6113 80.2047 27.7234C77.3128 27.8355 75.478 25.4108 75.478 25.4108" stroke="#000000" stroke-miterlimit="10" stroke-linecap="round" stroke-linejoin="round"/>
<path d="M48.8384 34.5072C48.8384 34.5072 52.3976 36.2317 57.014 34.5072C61.6303 32.7828 59.8391 33.9858 62.4641 32.5603C64.6334 31.3822 63.854 32.393 66.4131 32.1154C68.9722 31.8378 71.2519 30.5031 72.6418 29.3908C74.0316 28.2785 74.4214 28.1113 75.4785 27.7785C76.5356 27.4457 77.6701 27.1565 77.6701 27.1565" stroke="#000000" stroke-miterlimit="10" stroke-linecap="round" stroke-linejoin="round"/>
<path d="M61.5612 33.0355C61.5612 33.0355 60.23 34.6194 60.2398 36.2317C60.2451 37.1233 60.351 43.239 61.1296 47.632C61.9082 52.025 63.1869 61.1465 63.9103 64.7609C64.6337 68.3753 68.3593 79.6101 68.3593 81" stroke="#000000" stroke-miterlimit="10" stroke-linecap="round" stroke-linejoin="round"/>
</svg>
